<?xml version="1.0" standalone="no"?><!DOCTYPE svg PUBLIC "-//W3C//DTD SVG 1.1//EN" "http://www.w3.org/Graphics/SVG/1.1/DTD/svg11.dtd"><svg class="icon" width="200px" height="200.00px" viewBox="0 0 1024 1024" version="1.1" xmlns="http://www.w3.org/2000/svg"><path d="M854.44608 564.5312c0 131.76832-107.19232 238.94016-238.96064 238.94016l-300.35968 0c-28.28288 0-51.2-22.91712-51.2-51.2s22.91712-51.2 51.2-51.2l300.35968 0c75.30496 0 136.56064-61.25568 136.56064-136.54016s-61.25568-136.51968-136.56064-136.51968l-217.35424 0 24.51456 24.53504c20.00896 19.98848 20.00896 52.40832 0.02048 72.3968-9.99424 9.99424-23.10144 14.99136-36.22912 14.99136-13.08672 0-26.19392-4.99712-36.20864-14.99136l-108.52352-108.52352c-9.60512-9.60512-14.99136-22.60992-14.99136-36.20864s5.38624-26.60352 14.99136-36.20864l108.52352-108.52352c19.968-20.00896 52.40832-20.00896 72.3968 0s20.00896 52.40832 0 72.3968l-17.7152 17.69472 210.55488 0C747.23328 325.61152 854.44608 432.80384 854.44608 564.5312z" /></svg>